# xmcd
#
# Track frame offsets:
#        150
#        43798
#        84603
#        99295
#        148913
#        211708
#
# Disc length: 3932 seconds
#
# Revision: 0
# Processed by: cddbd v1.5PL3 Copyright (c) Steve Scherf et al.
# Submitted via: ExactAudioCopy v0.95a4
#
DISCID=4c0f5a06
DTITLE=Lovro von Matacic, NHK Symphony Orchestra - Wagner Overtures &
DTITLE=Orchestral works
DYEAR=2003
DGENRE=Classical
TTITLE0=Die Meistersinger von Nurnberg - Prelude, ACt I
TTITLE1=Lohengrin: Vorspiel zum 1. Aufzug
TTITLE2=Lohengrin: Vorspeil zum 3. Aufzug
TTITLE3=Der fliegende Hollander: The Flying Dutchman Overture
TTITLE4=Tannhauser: Ouverture
TTITLE5=Siegfried Idyll
EXTD=
EXTT0=
EXTT1=
EXTT2=
EXTT3=
EXTT4=
EXTT5=
PLAYORDER=
